<?xml version="1.0" standalone="no"?>
<!DOCTYPE svg PUBLIC "-//W3C//DTD SVG 20010904//EN"
 "http://www.w3.org/TR/2001/REC-SVG-20010904/DTD/svg10.dtd">
<svg version="1.0" xmlns="http://www.w3.org/2000/svg"
 width="512.000000pt" height="512.000000pt" viewBox="0 0 512.000000 512.000000"
 preserveAspectRatio="xMidYMid meet">
<metadata>
Created by potrace 1.14, written by Peter Selinger 2001-2017
</metadata>
<g transform="translate(0.000000,512.000000) scale(0.100000,-0.100000)"
fill="#000000" stroke="none">
<path d="M810 5101 c-395 -84 -709 -400 -791 -796 -18 -86 -19 -170 -19 -1745
0 -1575 1 -1659 19 -1745 82 -398 398 -714 796 -796 86 -18 170 -19 1745 -19
1575 0 1659 1 1745 19 398 82 714 398 796 796 18 86 19 170 19 1745 0 1575 -1
1659 -19 1745 -82 398 -398 714 -796 796 -86 18 -169 19 -1750 18 -1557 0
-1665 -2 -1745 -18z m3409 -717 c76 -22 144 -92 167 -170 40 -139 -29 -379
-159 -549 -17 -22 -196 -206 -398 -410 l-367 -370 239 -655 c228 -626 238
-658 239 -727 0 -129 -20 -164 -194 -340 l-151 -152 -404 584 c-223 322 -407
585 -411 585 -12 0 -543 -466 -562 -494 -17 -24 -4 -62 93 -272 56 -120 103
-233 106 -250 10 -63 -11 -93 -187 -269 -107 -107 -173 -166 -178 -159 -4 7
-133 178 -287 381 l-280 369 -369 279 c-202 154 -373 283 -380 287 -7 5 52 71
159 178 176 176 206 197 269 187 17 -3 130 -50 250 -106 121 -56 230 -101 243
-101 27 0 70 44 298 305 169 193 225 259 225 267 0 2 -263 186 -585 409 l-584
404 152 151 c175 173 214 196 339 195 63 0 113 -17 725 -240 l658 -239 375
372 c206 205 398 389 425 408 175 125 396 183 534 142z"/>
</g>
</svg>
