<?xml version="1.0" standalone="no"?>
<!DOCTYPE svg PUBLIC "-//W3C//DTD SVG 20010904//EN"
 "http://www.w3.org/TR/2001/REC-SVG-20010904/DTD/svg10.dtd">
<svg version="1.0" xmlns="http://www.w3.org/2000/svg"
 width="512.000000pt" height="512.000000pt" viewBox="0 0 512.000000 512.000000"
 preserveAspectRatio="xMidYMid meet">
<metadata>
Created by potrace 1.14, written by Peter Selinger 2001-2017
</metadata>
<g transform="translate(0.000000,512.000000) scale(0.100000,-0.100000)"
fill="#000000" stroke="none">
<path d="M810 5101 c-395 -84 -709 -400 -791 -796 -18 -86 -19 -170 -19 -1745
0 -1575 1 -1659 19 -1745 82 -398 398 -714 796 -796 86 -18 170 -19 1745 -19
1575 0 1659 1 1745 19 398 82 714 398 796 796 18 86 19 170 19 1745 0 1575 -1
1659 -19 1745 -82 398 -398 714 -796 796 -86 18 -169 19 -1750 18 -1557 0
-1665 -2 -1745 -18z m3278 -944 c23 -15 54 -46 69 -69 24 -35 29 -54 31 -123
5 -104 -14 -181 -74 -305 l-47 -95 -353 -355 -354 -356 212 -574 211 -575 1
-85 c1 -74 -3 -92 -26 -135 -32 -60 -275 -306 -286 -289 -79 122 -709 1023
-715 1024 -10 0 -246 -203 -399 -343 -77 -70 -108 -105 -108 -121 0 -13 41
-110 90 -216 73 -157 90 -202 90 -240 0 -60 -20 -88 -185 -250 -120 -119 -127
-124 -141 -105 -7 11 -123 164 -257 340 l-243 319 -319 243 c-176 134 -329
250 -340 257 -19 14 -14 21 105 141 162 165 190 185 250 185 38 0 83 -17 240
-90 106 -49 203 -90 216 -90 16 0 52 32 126 113 153 168 338 383 338 393 -1 7
-908 641 -1024 716 -17 11 229 254 289 286 43 23 61 27 135 26 l85 -1 575
-211 574 -212 356 354 355 353 95 47 c127 62 185 76 296 73 80 -2 95 -5 132
-30z"/>
</g>
</svg>
